<svg width="100" height="100" viewBox="0 0 144 145" fill="white" xmlns="http://www.w3.org/2000/svg" >
							<g clip-path="url(#clip0_114_110)">
								<path d="M112.904 19.2051H34.2061V126.035H112.904V19.2051Z" fill="#3299ff"></path>
								<path d="M83.2426 74.9004H65.0632V88.5842H83.2426V74.9004Z" fill="#fff"></path>
								<path d="M60.7576 49.9336H47.123V70.5793H60.7576V49.9336Z" fill="#fff"></path>
								<path d="M60.7576 92.666H47.123V113.312H60.7576V92.666Z" fill="#fff"></path>
								<path d="M133.336 0C139.226 0.00243471 144 4.8111 144 10.742V134.258C144 137.107 142.878 139.839 140.878 141.853C138.878 143.868 136.165 145 133.336 145H10.668C7.83864 145 5.12521 143.868 3.12457 141.854C1.12394 139.839 0 137.107 0 134.258V10.742C0 4.80938 4.77621 0 10.668 0H133.336ZM63.0006 27.7812C62.3626 27.7812 61.7508 28.037 61.3005 28.4921C60.8502 28.9472 60.5984 29.5641 60.6007 30.2065V45.9183H45.0016C43.6762 45.9183 42.6018 47.0002 42.6018 48.3348V72.5C42.6018 73.8346 43.6762 74.9165 45.0016 74.9165H60.6007V88.2074H45.0016C44.3652 88.2074 43.7548 88.462 43.3047 88.9152C42.8546 89.3683 42.6018 89.983 42.6018 90.6239V114.794C42.6018 115.434 42.8546 116.049 43.3047 116.502C43.7548 116.955 44.3652 117.21 45.0016 117.21H63.0006C63.637 117.21 64.2474 116.955 64.6975 116.502C65.1476 116.049 65.4004 115.434 65.4004 114.794V93.0404H86.8896C88.215 93.0404 89.2895 91.9585 89.2895 90.6239V72.5C89.2895 71.1654 88.215 70.0835 86.8896 70.0835H65.4004V50.7513H105.002C106.327 50.7489 107.4 49.6684 107.402 48.3348V30.1977C107.4 28.8641 106.327 27.7836 105.002 27.7812H63.0006Z" fill="white"></path>
								<path d="M103.335 31.6895H65.3022V45.3732H103.335V31.6895Z" fill="#fff"></path>
							</g>
							<defs>
								<clipPath id="clip0_114_110">
									<rect width="144" height="145" fill="white"></rect>
								</clipPath>
							</defs>
						</svg>